<?xml version="1.0" encoding="utf-8"?>
<!-- Generator: Adobe Illustrator 21.1.0, SVG Export Plug-In . SVG Version: 6.00 Build 0)  -->
<svg version="1.1" id="Calque_1" xmlns="http://www.w3.org/2000/svg" xmlns:xlink="http://www.w3.org/1999/xlink" x="0px" y="0px"
	 viewBox="0 0 70 150" style="enable-background:new 0 0 70 150;" xml:space="preserve">
<style type="text/css">
	.st0{fill:#FFFFFF;}
</style>
<g>
	<path class="st0" d="M0,0v150h69.4V0H0z M31.3,51.2V33.5c0-10.7,0-11.4-3.5-11.4v-0.7h17.4V22c-2.6,0-3.8,0.7-3.8,4.4v24.8
		c0,13.8-10,18.6-19.3,20l-0.2-0.7C26.8,68.7,31.3,63.6,31.3,51.2z M28.1,126.2H14.6v-0.7c2.5,0,3.8-3.2,3.8-7.1V93.8
		c0-3.5-1.3-7.2-3.8-7.2v-0.7h13.5V126.2z M30.6,126.2v-0.7c6.2,0,12.2-1,12.2-19.2c0-18.1-5.9-19.6-12.2-19.6v-0.7
		c11.4,0,24.4,3.5,24.4,20.3C55.1,122.9,42,126.2,30.6,126.2z"/>
</g>
</svg>
